<?xml version="1.0" encoding="utf-8" standalone="no"?>
<!DOCTYPE svg PUBLIC "-//W3C//DTD SVG 1.1//EN"
  "http://www.w3.org/Graphics/SVG/1.1/DTD/svg11.dtd">
<svg xmlns:xlink="http://www.w3.org/1999/xlink" width="832.489062pt" height="321.516625pt" viewBox="0 0 832.489062 321.516625" xmlns="http://www.w3.org/2000/svg" version="1.1">
 <metadata>
  <rdf:RDF xmlns:dc="http://purl.org/dc/elements/1.1/" xmlns:cc="http://creativecommons.org/ns#" xmlns:rdf="http://www.w3.org/1999/02/22-rdf-syntax-ns#">
   <cc:Work>
    <dc:type rdf:resource="http://purl.org/dc/dcmitype/StillImage"/>
    <dc:date>2026-09-26T09:52:53.848135</dc:date>
    <dc:format>image/svg+xml</dc:format>
    <dc:creator>
     <cc:Agent>
      <dc:title>Matplotlib v3.10.6, https://matplotlib.org/</dc:title>
     </cc:Agent>
    </dc:creator>
   </cc:Work>
  </rdf:RDF>
 </metadata>
 <defs>
  <style type="text/css">*{stroke-linejoin: round; stroke-linecap: butt}</style>
 </defs>
 <g id="figure_1">
  <g id="patch_1">
   <path d="M 0 321.516625 
L 832.489062 321.516625 
L 832.489062 0 
L 0 0 
z
" style="fill: #ffffff"/>
  </g>
  <g id="axes_1">
   <g id="patch_2">
    <path d="M 44.089063 298.606313 
L 825.289062 298.606313 
L 825.289062 21.406313 
L 44.089063 21.406313 
z
" style="fill: #ffffff"/>
   </g>
   <g id="matplotlib.axis_1">
    <g id="xtick_1">
     <g id="line2d_1">
      <path d="M 48.843257 298.606313 
L 48.843257 21.406313 
" clip-path="url(#pffa5415ebd)" style="fill: none; stroke: #b0b0b0; stroke-opacity: 0.2; stroke-width: 0.8; stroke-linecap: square"/>
     </g>
     <g id="line2d_2">
      <defs>
       <path id="m501537f459" d="M 0 0 
L 0 3.5 
" style="stroke: #000000; stroke-width: 0.8"/>
      </defs>
      <g>
       <use xlink:href="#m501537f459" x="48.843257" y="298.606313" style="stroke: #000000; stroke-width: 0.8"/>
      </g>
     </g>
     <g id="text_1">
      <!-- 2017 -->
      <g transform="translate(37.390757 312.444906) scale(0.09 -0.09)">
       <defs>
        <path id="DejaVuSans-32" d="M 1228 531 
L 3431 531 
L 3431 0 
L 469 0 
L 469 531 
Q 828 903 1448 1529 
Q 2069 2156 2228 2338 
Q 2531 2678 2651 2914 
Q 2772 3150 2772 3378 
Q 2772 3750 2511 3984 
Q 2250 4219 1831 4219 
Q 1534 4219 1204 4116 
Q 875 4013 500 3803 
L 500 4441 
Q 881 4594 1212 4672 
Q 1544 4750 1819 4750 
Q 2544 4750 2975 4387 
Q 3406 4025 3406 3419 
Q 3406 3131 3298 2873 
Q 3191 2616 2906 2266 
Q 2828 2175 2409 1742 
Q 1991 1309 1228 531 
z
" transform="scale(0.015625)"/>
        <path id="DejaVuSans-30" d="M 2034 4250 
Q 1547 4250 1301 3770 
Q 1056 3291 1056 2328 
Q 1056 1369 1301 889 
Q 1547 409 2034 409 
Q 2525 409 2770 889 
Q 3016 1369 3016 2328 
Q 3016 3291 2770 3770 
Q 2525 4250 2034 4250 
z
M 2034 4750 
Q 2819 4750 3233 4129 
Q 3647 3509 3647 2328 
Q 3647 1150 3233 529 
Q 2819 -91 2034 -91 
Q 1250 -91 836 529 
Q 422 1150 422 2328 
Q 422 3509 836 4129 
Q 1250 4750 2034 4750 
z
" transform="scale(0.015625)"/>
        <path id="DejaVuSans-31" d="M 794 531 
L 1825 531 
L 1825 4091 
L 703 3866 
L 703 4441 
L 1819 4666 
L 2450 4666 
L 2450 531 
L 3481 531 
L 3481 0 
L 794 0 
L 794 531 
z
" transform="scale(0.015625)"/>
        <path id="DejaVuSans-37" d="M 525 4666 
L 3525 4666 
L 3525 4397 
L 1831 0 
L 1172 0 
L 2766 4134 
L 525 4134 
L 525 4666 
z
" transform="scale(0.015625)"/>
       </defs>
       <use xlink:href="#DejaVuSans-32"/>
       <use xlink:href="#DejaVuSans-30" transform="translate(63.623047 0)"/>
       <use xlink:href="#DejaVuSans-31" transform="translate(127.246094 0)"/>
       <use xlink:href="#DejaVuSans-37" transform="translate(190.869141 0)"/>
      </g>
     </g>
    </g>
    <g id="xtick_2">
     <g id="line2d_3">
      <path d="M 142.3894 298.606313 
L 142.3894 21.406313 
" clip-path="url(#pffa5415ebd)" style="fill: none; stroke: #b0b0b0; stroke-opacity: 0.2; stroke-width: 0.8; stroke-linecap: square"/>
     </g>
     <g id="line2d_4">
      <g>
       <use xlink:href="#m501537f459" x="142.3894" y="298.606313" style="stroke: #000000; stroke-width: 0.8"/>
      </g>
     </g>
     <g id="text_2">
      <!-- 2018 -->
      <g transform="translate(130.9369 312.444906) scale(0.09 -0.09)">
       <defs>
        <path id="DejaVuSans-38" d="M 2034 2216 
Q 1584 2216 1326 1975 
Q 1069 1734 1069 1313 
Q 1069 891 1326 650 
Q 1584 409 2034 409 
Q 2484 409 2743 651 
Q 3003 894 3003 1313 
Q 3003 1734 2745 1975 
Q 2488 2216 2034 2216 
z
M 1403 2484 
Q 997 2584 770 2862 
Q 544 3141 544 3541 
Q 544 4100 942 4425 
Q 1341 4750 2034 4750 
Q 2731 4750 3128 4425 
Q 3525 4100 3525 3541 
Q 3525 3141 3298 2862 
Q 3072 2584 2669 2484 
Q 3125 2378 3379 2068 
Q 3634 1759 3634 1313 
Q 3634 634 3220 271 
Q 2806 -91 2034 -91 
Q 1263 -91 848 271 
Q 434 634 434 1313 
Q 434 1759 690 2068 
Q 947 2378 1403 2484 
z
M 1172 3481 
Q 1172 3119 1398 2916 
Q 1625 2713 2034 2713 
Q 2441 2713 2670 2916 
Q 2900 3119 2900 3481 
Q 2900 3844 2670 4047 
Q 2441 4250 2034 4250 
Q 1625 4250 1398 4047 
Q 1172 3844 1172 3481 
z
" transform="scale(0.015625)"/>
       </defs>
       <use xlink:href="#DejaVuSans-32"/>
       <use xlink:href="#DejaVuSans-30" transform="translate(63.623047 0)"/>
       <use xlink:href="#DejaVuSans-31" transform="translate(127.246094 0)"/>
       <use xlink:href="#DejaVuSans-38" transform="translate(190.869141 0)"/>
      </g>
     </g>
    </g>
    <g id="xtick_3">
     <g id="line2d_5">
      <path d="M 235.935544 298.606313 
L 235.935544 21.406313 
" clip-path="url(#pffa5415ebd)" style="fill: none; stroke: #b0b0b0; stroke-opacity: 0.2; stroke-width: 0.8; stroke-linecap: square"/>
     </g>
     <g id="line2d_6">
      <g>
       <use xlink:href="#m501537f459" x="235.935544" y="298.606313" style="stroke: #000000; stroke-width: 0.8"/>
      </g>
     </g>
     <g id="text_3">
      <!-- 2019 -->
      <g transform="translate(224.483044 312.444906) scale(0.09 -0.09)">
       <defs>
        <path id="DejaVuSans-39" d="M 703 97 
L 703 672 
Q 941 559 1184 500 
Q 1428 441 1663 441 
Q 2288 441 2617 861 
Q 2947 1281 2994 2138 
Q 2813 1869 2534 1725 
Q 2256 1581 1919 1581 
Q 1219 1581 811 2004 
Q 403 2428 403 3163 
Q 403 3881 828 4315 
Q 1253 4750 1959 4750 
Q 2769 4750 3195 4129 
Q 3622 3509 3622 2328 
Q 3622 1225 3098 567 
Q 2575 -91 1691 -91 
Q 1453 -91 1209 -44 
Q 966 3 703 97 
z
M 1959 2075 
Q 2384 2075 2632 2365 
Q 2881 2656 2881 3163 
Q 2881 3666 2632 3958 
Q 2384 4250 1959 4250 
Q 1534 4250 1286 3958 
Q 1038 3666 1038 3163 
Q 1038 2656 1286 2365 
Q 1534 2075 1959 2075 
z
" transform="scale(0.015625)"/>
       </defs>
       <use xlink:href="#DejaVuSans-32"/>
       <use xlink:href="#DejaVuSans-30" transform="translate(63.623047 0)"/>
       <use xlink:href="#DejaVuSans-31" transform="translate(127.246094 0)"/>
       <use xlink:href="#DejaVuSans-39" transform="translate(190.869141 0)"/>
      </g>
     </g>
    </g>
    <g id="xtick_4">
     <g id="line2d_7">
      <path d="M 329.481687 298.606313 
L 329.481687 21.406313 
" clip-path="url(#pffa5415ebd)" style="fill: none; stroke: #b0b0b0; stroke-opacity: 0.2; stroke-width: 0.8; stroke-linecap: square"/>
     </g>
     <g id="line2d_8">
      <g>
       <use xlink:href="#m501537f459" x="329.481687" y="298.606313" style="stroke: #000000; stroke-width: 0.8"/>
      </g>
     </g>
     <g id="text_4">
      <!-- 2020 -->
      <g transform="translate(318.029187 312.444906) scale(0.09 -0.09)">
       <use xlink:href="#DejaVuSans-32"/>
       <use xlink:href="#DejaVuSans-30" transform="translate(63.623047 0)"/>
       <use xlink:href="#DejaVuSans-32" transform="translate(127.246094 0)"/>
       <use xlink:href="#DejaVuSans-30" transform="translate(190.869141 0)"/>
      </g>
     </g>
    </g>
    <g id="xtick_5">
     <g id="line2d_9">
      <path d="M 423.284122 298.606313 
L 423.284122 21.406313 
" clip-path="url(#pffa5415ebd)" style="fill: none; stroke: #b0b0b0; stroke-opacity: 0.2; stroke-width: 0.8; stroke-linecap: square"/>
     </g>
     <g id="line2d_10">
      <g>
       <use xlink:href="#m501537f459" x="423.284122" y="298.606313" style="stroke: #000000; stroke-width: 0.8"/>
      </g>
     </g>
     <g id="text_5">
      <!-- 2021 -->
      <g transform="translate(411.831622 312.444906) scale(0.09 -0.09)">
       <use xlink:href="#DejaVuSans-32"/>
       <use xlink:href="#DejaVuSans-30" transform="translate(63.623047 0)"/>
       <use xlink:href="#DejaVuSans-32" transform="translate(127.246094 0)"/>
       <use xlink:href="#DejaVuSans-31" transform="translate(190.869141 0)"/>
      </g>
     </g>
    </g>
    <g id="xtick_6">
     <g id="line2d_11">
      <path d="M 516.830265 298.606313 
L 516.830265 21.406313 
" clip-path="url(#pffa5415ebd)" style="fill: none; stroke: #b0b0b0; stroke-opacity: 0.2; stroke-width: 0.8; stroke-linecap: square"/>
     </g>
     <g id="line2d_12">
      <g>
       <use xlink:href="#m501537f459" x="516.830265" y="298.606313" style="stroke: #000000; stroke-width: 0.8"/>
      </g>
     </g>
     <g id="text_6">
      <!-- 2022 -->
      <g transform="translate(505.377765 312.444906) scale(0.09 -0.09)">
       <use xlink:href="#DejaVuSans-32"/>
       <use xlink:href="#DejaVuSans-30" transform="translate(63.623047 0)"/>
       <use xlink:href="#DejaVuSans-32" transform="translate(127.246094 0)"/>
       <use xlink:href="#DejaVuSans-32" transform="translate(190.869141 0)"/>
      </g>
     </g>
    </g>
    <g id="xtick_7">
     <g id="line2d_13">
      <path d="M 610.376409 298.606313 
L 610.376409 21.406313 
" clip-path="url(#pffa5415ebd)" style="fill: none; stroke: #b0b0b0; stroke-opacity: 0.2; stroke-width: 0.8; stroke-linecap: square"/>
     </g>
     <g id="line2d_14">
      <g>
       <use xlink:href="#m501537f459" x="610.376409" y="298.606313" style="stroke: #000000; stroke-width: 0.8"/>
      </g>
     </g>
     <g id="text_7">
      <!-- 2023 -->
      <g transform="translate(598.923909 312.444906) scale(0.09 -0.09)">
       <defs>
        <path id="DejaVuSans-33" d="M 2597 2516 
Q 3050 2419 3304 2112 
Q 3559 1806 3559 1356 
Q 3559 666 3084 287 
Q 2609 -91 1734 -91 
Q 1441 -91 1130 -33 
Q 819 25 488 141 
L 488 750 
Q 750 597 1062 519 
Q 1375 441 1716 441 
Q 2309 441 2620 675 
Q 2931 909 2931 1356 
Q 2931 1769 2642 2001 
Q 2353 2234 1838 2234 
L 1294 2234 
L 1294 2753 
L 1863 2753 
Q 2328 2753 2575 2939 
Q 2822 3125 2822 3475 
Q 2822 3834 2567 4026 
Q 2313 4219 1838 4219 
Q 1578 4219 1281 4162 
Q 984 4106 628 3988 
L 628 4550 
Q 988 4650 1302 4700 
Q 1616 4750 1894 4750 
Q 2613 4750 3031 4423 
Q 3450 4097 3450 3541 
Q 3450 3153 3228 2886 
Q 3006 2619 2597 2516 
z
" transform="scale(0.015625)"/>
       </defs>
       <use xlink:href="#DejaVuSans-32"/>
       <use xlink:href="#DejaVuSans-30" transform="translate(63.623047 0)"/>
       <use xlink:href="#DejaVuSans-32" transform="translate(127.246094 0)"/>
       <use xlink:href="#DejaVuSans-33" transform="translate(190.869141 0)"/>
      </g>
     </g>
    </g>
    <g id="xtick_8">
     <g id="line2d_15">
      <path d="M 703.922552 298.606313 
L 703.922552 21.406313 
" clip-path="url(#pffa5415ebd)" style="fill: none; stroke: #b0b0b0; stroke-opacity: 0.2; stroke-width: 0.8; stroke-linecap: square"/>
     </g>
     <g id="line2d_16">
      <g>
       <use xlink:href="#m501537f459" x="703.922552" y="298.606313" style="stroke: #000000; stroke-width: 0.8"/>
      </g>
     </g>
     <g id="text_8">
      <!-- 2024 -->
      <g transform="translate(692.470052 312.444906) scale(0.09 -0.09)">
       <defs>
        <path id="DejaVuSans-34" d="M 2419 4116 
L 825 1625 
L 2419 1625 
L 2419 4116 
z
M 2253 4666 
L 3047 4666 
L 3047 1625 
L 3713 1625 
L 3713 1100 
L 3047 1100 
L 3047 0 
L 2419 0 
L 2419 1100 
L 313 1100 
L 313 1709 
L 2253 4666 
z
" transform="scale(0.015625)"/>
       </defs>
       <use xlink:href="#DejaVuSans-32"/>
       <use xlink:href="#DejaVuSans-30" transform="translate(63.623047 0)"/>
       <use xlink:href="#DejaVuSans-32" transform="translate(127.246094 0)"/>
       <use xlink:href="#DejaVuSans-34" transform="translate(190.869141 0)"/>
      </g>
     </g>
    </g>
    <g id="xtick_9">
     <g id="line2d_17">
      <path d="M 797.724987 298.606313 
L 797.724987 21.406313 
" clip-path="url(#pffa5415ebd)" style="fill: none; stroke: #b0b0b0; stroke-opacity: 0.2; stroke-width: 0.8; stroke-linecap: square"/>
     </g>
     <g id="line2d_18">
      <g>
       <use xlink:href="#m501537f459" x="797.724987" y="298.606313" style="stroke: #000000; stroke-width: 0.8"/>
      </g>
     </g>
     <g id="text_9">
      <!-- 2025 -->
      <g transform="translate(786.272487 312.444906) scale(0.09 -0.09)">
       <defs>
        <path id="DejaVuSans-35" d="M 691 4666 
L 3169 4666 
L 3169 4134 
L 1269 4134 
L 1269 2991 
Q 1406 3038 1543 3061 
Q 1681 3084 1819 3084 
Q 2600 3084 3056 2656 
Q 3513 2228 3513 1497 
Q 3513 744 3044 326 
Q 2575 -91 1722 -91 
Q 1428 -91 1123 -41 
Q 819 9 494 109 
L 494 744 
Q 775 591 1075 516 
Q 1375 441 1709 441 
Q 2250 441 2565 725 
Q 2881 1009 2881 1497 
Q 2881 1984 2565 2268 
Q 2250 2553 1709 2553 
Q 1456 2553 1204 2497 
Q 953 2441 691 2322 
L 691 4666 
z
" transform="scale(0.015625)"/>
       </defs>
       <use xlink:href="#DejaVuSans-32"/>
       <use xlink:href="#DejaVuSans-30" transform="translate(63.623047 0)"/>
       <use xlink:href="#DejaVuSans-32" transform="translate(127.246094 0)"/>
       <use xlink:href="#DejaVuSans-35" transform="translate(190.869141 0)"/>
      </g>
     </g>
    </g>
   </g>
   <g id="matplotlib.axis_2">
    <g id="ytick_1">
     <g id="line2d_19">
      <path d="M 44.089063 276.589414 
L 825.289062 276.589414 
" clip-path="url(#pffa5415ebd)" style="fill: none; stroke: #b0b0b0; stroke-opacity: 0.2; stroke-width: 0.8; stroke-linecap: square"/>
     </g>
     <g id="line2d_20">
      <defs>
       <path id="me39471a4eb" d="M 0 0 
L -3.5 0 
" style="stroke: #000000; stroke-width: 0.8"/>
      </defs>
      <g>
       <use xlink:href="#me39471a4eb" x="44.089063" y="276.589414" style="stroke: #000000; stroke-width: 0.8"/>
      </g>
     </g>
     <g id="text_10">
      <!-- 25 -->
      <g transform="translate(25.636563 280.008711) scale(0.09 -0.09)">
       <use xlink:href="#DejaVuSans-32"/>
       <use xlink:href="#DejaVuSans-35" transform="translate(63.623047 0)"/>
      </g>
     </g>
    </g>
    <g id="ytick_2">
     <g id="line2d_21">
      <path d="M 44.089063 243.339013 
L 825.289062 243.339013 
" clip-path="url(#pffa5415ebd)" style="fill: none; stroke: #b0b0b0; stroke-opacity: 0.2; stroke-width: 0.8; stroke-linecap: square"/>
     </g>
     <g id="line2d_22">
      <g>
       <use xlink:href="#me39471a4eb" x="44.089063" y="243.339013" style="stroke: #000000; stroke-width: 0.8"/>
      </g>
     </g>
     <g id="text_11">
      <!-- 50 -->
      <g transform="translate(25.636563 246.75831) scale(0.09 -0.09)">
       <use xlink:href="#DejaVuSans-35"/>
       <use xlink:href="#DejaVuSans-30" transform="translate(63.623047 0)"/>
      </g>
     </g>
    </g>
    <g id="ytick_3">
     <g id="line2d_23">
      <path d="M 44.089063 210.088613 
L 825.289062 210.088613 
" clip-path="url(#pffa5415ebd)" style="fill: none; stroke: #b0b0b0; stroke-opacity: 0.2; stroke-width: 0.8; stroke-linecap: square"/>
     </g>
     <g id="line2d_24">
      <g>
       <use xlink:href="#me39471a4eb" x="44.089063" y="210.088613" style="stroke: #000000; stroke-width: 0.8"/>
      </g>
     </g>
     <g id="text_12">
      <!-- 75 -->
      <g transform="translate(25.636563 213.50791) scale(0.09 -0.09)">
       <use xlink:href="#DejaVuSans-37"/>
       <use xlink:href="#DejaVuSans-35" transform="translate(63.623047 0)"/>
      </g>
     </g>
    </g>
    <g id="ytick_4">
     <g id="line2d_25">
      <path d="M 44.089063 176.838213 
L 825.289062 176.838213 
" clip-path="url(#pffa5415ebd)" style="fill: none; stroke: #b0b0b0; stroke-opacity: 0.2; stroke-width: 0.8; stroke-linecap: square"/>
     </g>
     <g id="line2d_26">
      <g>
       <use xlink:href="#me39471a4eb" x="44.089063" y="176.838213" style="stroke: #000000; stroke-width: 0.8"/>
      </g>
     </g>
     <g id="text_13">
      <!-- 100 -->
      <g transform="translate(19.910313 180.25751) scale(0.09 -0.09)">
       <use xlink:href="#DejaVuSans-31"/>
       <use xlink:href="#DejaVuSans-30" transform="translate(63.623047 0)"/>
       <use xlink:href="#DejaVuSans-30" transform="translate(127.246094 0)"/>
      </g>
     </g>
    </g>
    <g id="ytick_5">
     <g id="line2d_27">
      <path d="M 44.089063 143.587812 
L 825.289062 143.587812 
" clip-path="url(#pffa5415ebd)" style="fill: none; stroke: #b0b0b0; stroke-opacity: 0.2; stroke-width: 0.8; stroke-linecap: square"/>
     </g>
     <g id="line2d_28">
      <g>
       <use xlink:href="#me39471a4eb" x="44.089063" y="143.587812" style="stroke: #000000; stroke-width: 0.8"/>
      </g>
     </g>
     <g id="text_14">
      <!-- 125 -->
      <g transform="translate(19.910313 147.007109) scale(0.09 -0.09)">
       <use xlink:href="#DejaVuSans-31"/>
       <use xlink:href="#DejaVuSans-32" transform="translate(63.623047 0)"/>
       <use xlink:href="#DejaVuSans-35" transform="translate(127.246094 0)"/>
      </g>
     </g>
    </g>
    <g id="ytick_6">
     <g id="line2d_29">
      <path d="M 44.089063 110.337412 
L 825.289062 110.337412 
" clip-path="url(#pffa5415ebd)" style="fill: none; stroke: #b0b0b0; stroke-opacity: 0.2; stroke-width: 0.8; stroke-linecap: square"/>
     </g>
     <g id="line2d_30">
      <g>
       <use xlink:href="#me39471a4eb" x="44.089063" y="110.337412" style="stroke: #000000; stroke-width: 0.8"/>
      </g>
     </g>
     <g id="text_15">
      <!-- 150 -->
      <g transform="translate(19.910313 113.756709) scale(0.09 -0.09)">
       <use xlink:href="#DejaVuSans-31"/>
       <use xlink:href="#DejaVuSans-35" transform="translate(63.623047 0)"/>
       <use xlink:href="#DejaVuSans-30" transform="translate(127.246094 0)"/>
      </g>
     </g>
    </g>
    <g id="ytick_7">
     <g id="line2d_31">
      <path d="M 44.089063 77.087012 
L 825.289062 77.087012 
" clip-path="url(#pffa5415ebd)" style="fill: none; stroke: #b0b0b0; stroke-opacity: 0.2; stroke-width: 0.8; stroke-linecap: square"/>
     </g>
     <g id="line2d_32">
      <g>
       <use xlink:href="#me39471a4eb" x="44.089063" y="77.087012" style="stroke: #000000; stroke-width: 0.8"/>
      </g>
     </g>
     <g id="text_16">
      <!-- 175 -->
      <g transform="translate(19.910313 80.506309) scale(0.09 -0.09)">
       <use xlink:href="#DejaVuSans-31"/>
       <use xlink:href="#DejaVuSans-37" transform="translate(63.623047 0)"/>
       <use xlink:href="#DejaVuSans-35" transform="translate(127.246094 0)"/>
      </g>
     </g>
    </g>
    <g id="ytick_8">
     <g id="line2d_33">
      <path d="M 44.089063 43.836612 
L 825.289062 43.836612 
" clip-path="url(#pffa5415ebd)" style="fill: none; stroke: #b0b0b0; stroke-opacity: 0.2; stroke-width: 0.8; stroke-linecap: square"/>
     </g>
     <g id="line2d_34">
      <g>
       <use xlink:href="#me39471a4eb" x="44.089063" y="43.836612" style="stroke: #000000; stroke-width: 0.8"/>
      </g>
     </g>
     <g id="text_17">
      <!-- 200 -->
      <g transform="translate(19.910313 47.255908) scale(0.09 -0.09)">
       <use xlink:href="#DejaVuSans-32"/>
       <use xlink:href="#DejaVuSans-30" transform="translate(63.623047 0)"/>
       <use xlink:href="#DejaVuSans-30" transform="translate(127.246094 0)"/>
      </g>
     </g>
    </g>
    <g id="text_18">
     <!-- Mean weekly rainfall (mm) -->
     <g transform="translate(14.038594 220.124906) rotate(-90) scale(0.09 -0.09)">
      <defs>
       <path id="DejaVuSans-4d" d="M 628 4666 
L 1569 4666 
L 2759 1491 
L 3956 4666 
L 4897 4666 
L 4897 0 
L 4281 0 
L 4281 4097 
L 3078 897 
L 2444 897 
L 1241 4097 
L 1241 0 
L 628 0 
L 628 4666 
z
" transform="scale(0.015625)"/>
       <path id="DejaVuSans-65" d="M 3597 1894 
L 3597 1613 
L 953 1613 
Q 991 1019 1311 708 
Q 1631 397 2203 397 
Q 2534 397 2845 478 
Q 3156 559 3463 722 
L 3463 178 
Q 3153 47 2828 -22 
Q 2503 -91 2169 -91 
Q 1331 -91 842 396 
Q 353 884 353 1716 
Q 353 2575 817 3079 
Q 1281 3584 2069 3584 
Q 2775 3584 3186 3129 
Q 3597 2675 3597 1894 
z
M 3022 2063 
Q 3016 2534 2758 2815 
Q 2500 3097 2075 3097 
Q 1594 3097 1305 2825 
Q 1016 2553 972 2059 
L 3022 2063 
z
" transform="scale(0.015625)"/>
       <path id="DejaVuSans-61" d="M 2194 1759 
Q 1497 1759 1228 1600 
Q 959 1441 959 1056 
Q 959 750 1161 570 
Q 1363 391 1709 391 
Q 2188 391 2477 730 
Q 2766 1069 2766 1631 
L 2766 1759 
L 2194 1759 
z
M 3341 1997 
L 3341 0 
L 2766 0 
L 2766 531 
Q 2569 213 2275 61 
Q 1981 -91 1556 -91 
Q 1019 -91 701 211 
Q 384 513 384 1019 
Q 384 1609 779 1909 
Q 1175 2209 1959 2209 
L 2766 2209 
L 2766 2266 
Q 2766 2663 2505 2880 
Q 2244 3097 1772 3097 
Q 1472 3097 1187 3025 
Q 903 2953 641 2809 
L 641 3341 
Q 956 3463 1253 3523 
Q 1550 3584 1831 3584 
Q 2591 3584 2966 3190 
Q 3341 2797 3341 1997 
z
" transform="scale(0.015625)"/>
       <path id="DejaVuSans-6e" d="M 3513 2113 
L 3513 0 
L 2938 0 
L 2938 2094 
Q 2938 2591 2744 2837 
Q 2550 3084 2163 3084 
Q 1697 3084 1428 2787 
Q 1159 2491 1159 1978 
L 1159 0 
L 581 0 
L 581 3500 
L 1159 3500 
L 1159 2956 
Q 1366 3272 1645 3428 
Q 1925 3584 2291 3584 
Q 2894 3584 3203 3211 
Q 3513 2838 3513 2113 
z
" transform="scale(0.015625)"/>
       <path id="DejaVuSans-20" transform="scale(0.015625)"/>
       <path id="DejaVuSans-77" d="M 269 3500 
L 844 3500 
L 1563 769 
L 2278 3500 
L 2956 3500 
L 3675 769 
L 4391 3500 
L 4966 3500 
L 4050 0 
L 3372 0 
L 2619 2869 
L 1863 0 
L 1184 0 
L 269 3500 
z
" transform="scale(0.015625)"/>
       <path id="DejaVuSans-6b" d="M 581 4863 
L 1159 4863 
L 1159 1991 
L 2875 3500 
L 3609 3500 
L 1753 1863 
L 3688 0 
L 2938 0 
L 1159 1709 
L 1159 0 
L 581 0 
L 581 4863 
z
" transform="scale(0.015625)"/>
       <path id="DejaVuSans-6c" d="M 603 4863 
L 1178 4863 
L 1178 0 
L 603 0 
L 603 4863 
z
" transform="scale(0.015625)"/>
       <path id="DejaVuSans-79" d="M 2059 -325 
Q 1816 -950 1584 -1140 
Q 1353 -1331 966 -1331 
L 506 -1331 
L 506 -850 
L 844 -850 
Q 1081 -850 1212 -737 
Q 1344 -625 1503 -206 
L 1606 56 
L 191 3500 
L 800 3500 
L 1894 763 
L 2988 3500 
L 3597 3500 
L 2059 -325 
z
" transform="scale(0.015625)"/>
       <path id="DejaVuSans-72" d="M 2631 2963 
Q 2534 3019 2420 3045 
Q 2306 3072 2169 3072 
Q 1681 3072 1420 2755 
Q 1159 2438 1159 1844 
L 1159 0 
L 581 0 
L 581 3500 
L 1159 3500 
L 1159 2956 
Q 1341 3275 1631 3429 
Q 1922 3584 2338 3584 
Q 2397 3584 2469 3576 
Q 2541 3569 2628 3553 
L 2631 2963 
z
" transform="scale(0.015625)"/>
       <path id="DejaVuSans-69" d="M 603 3500 
L 1178 3500 
L 1178 0 
L 603 0 
L 603 3500 
z
M 603 4863 
L 1178 4863 
L 1178 4134 
L 603 4134 
L 603 4863 
z
" transform="scale(0.015625)"/>
       <path id="DejaVuSans-66" d="M 2375 4863 
L 2375 4384 
L 1825 4384 
Q 1516 4384 1395 4259 
Q 1275 4134 1275 3809 
L 1275 3500 
L 2222 3500 
L 2222 3053 
L 1275 3053 
L 1275 0 
L 697 0 
L 697 3053 
L 147 3053 
L 147 3500 
L 697 3500 
L 697 3744 
Q 697 4328 969 4595 
Q 1241 4863 1831 4863 
L 2375 4863 
z
" transform="scale(0.015625)"/>
       <path id="DejaVuSans-28" d="M 1984 4856 
Q 1566 4138 1362 3434 
Q 1159 2731 1159 2009 
Q 1159 1288 1364 580 
Q 1569 -128 1984 -844 
L 1484 -844 
Q 1016 -109 783 600 
Q 550 1309 550 2009 
Q 550 2706 781 3412 
Q 1013 4119 1484 4856 
L 1984 4856 
z
" transform="scale(0.015625)"/>
       <path id="DejaVuSans-6d" d="M 3328 2828 
Q 3544 3216 3844 3400 
Q 4144 3584 4550 3584 
Q 5097 3584 5394 3201 
Q 5691 2819 5691 2113 
L 5691 0 
L 5113 0 
L 5113 2094 
Q 5113 2597 4934 2840 
Q 4756 3084 4391 3084 
Q 3944 3084 3684 2787 
Q 3425 2491 3425 1978 
L 3425 0 
L 2847 0 
L 2847 2094 
Q 2847 2600 2669 2842 
Q 2491 3084 2119 3084 
Q 1678 3084 1418 2786 
Q 1159 2488 1159 1978 
L 1159 0 
L 581 0 
L 581 3500 
L 1159 3500 
L 1159 2956 
Q 1356 3278 1631 3431 
Q 1906 3584 2284 3584 
Q 2666 3584 2933 3390 
Q 3200 3197 3328 2828 
z
" transform="scale(0.015625)"/>
       <path id="DejaVuSans-29" d="M 513 4856 
L 1013 4856 
Q 1481 4119 1714 3412 
Q 1947 2706 1947 2009 
Q 1947 1309 1714 600 
Q 1481 -109 1013 -844 
L 513 -844 
Q 928 -128 1133 580 
Q 1338 1288 1338 2009 
Q 1338 2731 1133 3434 
Q 928 4138 513 4856 
z
" transform="scale(0.015625)"/>
      </defs>
      <use xlink:href="#DejaVuSans-4d"/>
      <use xlink:href="#DejaVuSans-65" transform="translate(86.279297 0)"/>
      <use xlink:href="#DejaVuSans-61" transform="translate(147.802734 0)"/>
      <use xlink:href="#DejaVuSans-6e" transform="translate(209.082031 0)"/>
      <use xlink:href="#DejaVuSans-20" transform="translate(272.460938 0)"/>
      <use xlink:href="#DejaVuSans-77" transform="translate(304.248047 0)"/>
      <use xlink:href="#DejaVuSans-65" transform="translate(386.035156 0)"/>
      <use xlink:href="#DejaVuSans-65" transform="translate(447.558594 0)"/>
      <use xlink:href="#DejaVuSans-6b" transform="translate(509.082031 0)"/>
      <use xlink:href="#DejaVuSans-6c" transform="translate(566.992188 0)"/>
      <use xlink:href="#DejaVuSans-79" transform="translate(594.775391 0)"/>
      <use xlink:href="#DejaVuSans-20" transform="translate(653.955078 0)"/>
      <use xlink:href="#DejaVuSans-72" transform="translate(685.742188 0)"/>
      <use xlink:href="#DejaVuSans-61" transform="translate(726.855469 0)"/>
      <use xlink:href="#DejaVuSans-69" transform="translate(788.134766 0)"/>
      <use xlink:href="#DejaVuSans-6e" transform="translate(815.917969 0)"/>
      <use xlink:href="#DejaVuSans-66" transform="translate(879.296875 0)"/>
      <use xlink:href="#DejaVuSans-61" transform="translate(914.501953 0)"/>
      <use xlink:href="#DejaVuSans-6c" transform="translate(975.78125 0)"/>
      <use xlink:href="#DejaVuSans-6c" transform="translate(1003.564453 0)"/>
      <use xlink:href="#DejaVuSans-20" transform="translate(1031.347656 0)"/>
      <use xlink:href="#DejaVuSans-28" transform="translate(1063.134766 0)"/>
      <use xlink:href="#DejaVuSans-6d" transform="translate(1102.148438 0)"/>
      <use xlink:href="#DejaVuSans-6d" transform="translate(1199.560547 0)"/>
      <use xlink:href="#DejaVuSans-29" transform="translate(1296.972656 0)"/>
     </g>
    </g>
   </g>
   <g id="line2d_35">
    <path d="M 79.598153 67.011739 
L 87.543168 155.031854 
L 95.231892 200.587449 
L 103.176907 210.924865 
L 111.121922 235.391794 
L 118.810646 150.825944 
L 126.755661 164.828758 
L 134.444385 194.008329 
L 142.3894 144.981583 
L 150.334415 34.006313 
L 157.510558 245.653208 
L 165.455573 147.973744 
L 173.144297 229.395418 
L 181.089312 271.158938 
L 188.778036 217.377318 
L 196.723051 225.552662 
L 204.668066 221.752139 
L 212.35679 196.263294 
L 220.301805 167.109071 
L 227.990529 123.664868 
L 235.935544 208.788136 
L 243.880559 109.172207 
L 251.056701 228.128574 
L 259.001716 199.303725 
L 266.69044 189.701068 
L 274.635455 255.421959 
L 282.324179 192.091164 
L 290.269194 231.73907 
L 298.214209 257.662855 
L 305.902933 197.048749 
L 313.847948 257.160345 
L 321.536672 182.699661 
L 329.481687 153.870576 
L 337.426702 61.454534 
L 344.859136 240.197344 
L 352.804151 169.38289 
L 360.492875 248.468411 
L 368.43789 125.170593 
L 376.126614 187.750134 
L 384.071629 184.484496 
L 392.016644 224.06061 
L 399.705368 119.701081 
L 407.650383 184.777273 
L 415.339107 159.620628 
L 423.284122 170.54362 
L 431.229137 128.34373 
L 438.405279 230.180853 
L 446.350294 249.200365 
L 454.039018 239.887671 
L 461.984033 166.067439 
L 469.672757 248.49656 
L 477.617772 236.734646 
L 485.562787 256.238363 
L 493.251511 266.513851 
L 501.196526 211.217653 
L 508.88525 258.293464 
L 516.830265 180.137814 
L 524.77528 165.419955 
L 531.951423 253.605069 
L 539.896438 263.283409 
L 547.585162 230.552465 
L 555.530177 241.535975 
L 563.218901 217.95162 
L 571.163916 267.097002 
L 579.108931 286.006313 
L 586.797655 237.060722 
L 594.74267 225.755358 
L 602.431394 229.049144 
L 610.376409 206.681797 
L 618.321424 224.218268 
L 625.497566 214.172208 
L 633.442581 179.12294 
L 641.131305 220.535974 
L 649.07632 243.710721 
L 656.765044 244.72419 
L 664.710059 281.777881 
L 672.655074 203.340714 
L 680.343798 196.758772 
L 688.288813 275.804022 
L 695.977537 95.959536 
L 703.922552 151.695155 
L 711.867567 179.39177 
L 719.3 236.532174 
L 727.245015 201.938389 
L 734.93374 140.815522 
L 742.878754 228.22688 
L 750.567479 258.017576 
L 758.512493 225.722019 
L 766.457508 200.204757 
L 774.146233 257.364446 
L 782.091247 175.469891 
L 789.779972 201.989592 
" clip-path="url(#pffa5415ebd)" style="fill: none; stroke: #000000; stroke-width: 2; stroke-linecap: square"/>
   </g>
   <g id="line2d_36">
    <path d="M 79.598153 155.834478 
L 87.543168 195.385316 
L 95.231892 226.487505 
L 103.176907 207.420433 
L 111.121922 203.523516 
L 118.810646 203.38729 
L 126.755661 155.854945 
L 134.444385 188.842827 
L 142.3894 195.80535 
L 150.334415 177.083146 
L 157.510558 226.256006 
L 165.455573 156.086474 
L 173.144297 244.946647 
L 181.089312 249.607883 
L 188.778036 177.055394 
L 196.723051 234.983095 
L 204.668066 216.13333 
L 212.35679 167.864603 
L 220.301805 205.001164 
L 227.990529 162.264993 
L 235.935544 221.84802 
L 243.880559 204.383777 
L 251.056701 211.538001 
L 259.001716 190.304046 
L 266.69044 186.541682 
L 274.635455 235.948861 
L 282.324179 177.347928 
L 290.269194 249.229716 
L 298.214209 251.289434 
L 305.902933 201.154374 
L 313.847948 189.617679 
L 321.536672 196.007614 
L 329.481687 156.653683 
L 337.426702 61.747342 
L 344.859136 246.762512 
L 352.804151 226.554451 
L 360.492875 259.525027 
L 368.43789 159.233826 
L 376.126614 212.759269 
L 384.071629 223.431574 
L 392.016644 202.674884 
L 399.705368 172.60249 
L 407.650383 185.979749 
L 415.339107 160.576171 
L 423.284122 232.345595 
L 431.229137 185.802995 
L 438.405279 194.670323 
L 446.350294 236.693078 
L 454.039018 255.730368 
L 461.984033 208.778993 
L 469.672757 262.548162 
L 477.617772 209.494788 
L 485.562787 272.034239 
L 493.251511 259.860331 
L 501.196526 200.592502 
L 508.88525 247.320695 
L 516.830265 194.744347 
L 524.77528 160.589637 
L 531.951423 246.493342 
L 539.896438 251.665348 
L 547.585162 223.067593 
L 555.530177 258.217675 
L 563.218901 212.324502 
L 571.163916 237.281221 
L 579.108931 260.762115 
L 586.797655 225.68794 
L 594.74267 215.86175 
L 602.431394 209.564063 
L 610.376409 201.036413 
L 618.321424 242.6702 
L 625.497566 191.428419 
L 633.442581 174.53999 
L 641.131305 202.730663 
L 649.07632 219.123665 
L 656.765044 226.95963 
L 664.710059 259.181117 
L 672.655074 198.38182 
L 680.343798 160.204266 
L 688.288813 227.776146 
L 695.977537 97.873931 
L 703.922552 217.284948 
L 711.867567 209.778331 
L 719.3 231.576202 
L 727.245015 196.451636 
L 734.93374 171.376209 
L 742.878754 215.971635 
L 750.567479 211.023628 
L 758.512493 221.643695 
L 766.457508 183.831563 
L 774.146233 209.434696 
L 782.091247 186.410296 
L 789.779972 212.597472 
" clip-path="url(#pffa5415ebd)" style="fill: none; stroke: #1f77b4; stroke-width: 1.2; stroke-linecap: square"/>
   </g>
   <g id="line2d_37">
    <path d="M 79.598153 159.761563 
L 87.543168 202.872288 
L 95.231892 226.65814 
L 103.176907 214.701944 
L 111.121922 194.816138 
L 118.810646 205.159481 
L 126.755661 157.463076 
L 134.444385 175.395623 
L 142.3894 203.695217 
L 150.334415 175.766748 
L 157.510558 224.965722 
L 165.455573 161.068656 
L 173.144297 234.36343 
L 181.089312 249.993761 
L 188.778036 182.781833 
L 196.723051 230.671329 
L 204.668066 208.116268 
L 212.35679 175.308226 
L 220.301805 204.493062 
L 227.990529 161.96567 
L 235.935544 211.615455 
L 243.880559 204.592373 
L 251.056701 220.145428 
L 259.001716 186.713251 
L 266.69044 171.47203 
L 274.635455 236.24654 
L 282.324179 174.566981 
L 290.269194 248.248622 
L 298.214209 242.479925 
L 305.902933 186.326175 
L 313.847948 198.228495 
L 321.536672 193.541313 
L 329.481687 156.124496 
L 337.426702 53.418425 
L 344.859136 238.48565 
L 352.804151 227.266552 
L 360.492875 249.89306 
L 368.43789 174.087262 
L 376.126614 215.805372 
L 384.071629 213.755127 
L 392.016644 200.098394 
L 399.705368 192.975778 
L 407.650383 183.231944 
L 415.339107 154.590105 
L 423.284122 227.856395 
L 431.229137 178.223562 
L 438.405279 188.397395 
L 446.350294 225.159219 
L 454.039018 247.7446 
L 461.984033 217.945664 
L 469.672757 255.948386 
L 477.617772 214.273559 
L 485.562787 263.781906 
L 493.251511 251.44974 
L 501.196526 188.386354 
L 508.88525 247.571554 
L 516.830265 204.591439 
L 524.77528 163.66745 
L 531.951423 243.814735 
L 539.896438 242.014396 
L 547.585162 213.169176 
L 555.530177 250.902871 
L 563.218901 217.222533 
L 571.163916 233.356942 
L 579.108931 254.600608 
L 586.797655 220.580642 
L 594.74267 217.93162 
L 602.431394 201.798459 
L 610.376409 211.455565 
L 618.321424 241.040466 
L 625.497566 189.35517 
L 633.442581 186.20517 
L 641.131305 208.489949 
L 649.07632 222.446381 
L 656.765044 224.074248 
L 664.710059 253.910531 
L 672.655074 204.611673 
L 680.343798 176.0419 
L 688.288813 229.319938 
L 695.977537 100.788556 
L 703.922552 203.825619 
L 711.867567 206.302646 
L 719.3 225.588264 
L 727.245015 199.454847 
L 734.93374 160.912836 
L 742.878754 215.575294 
L 750.567479 217.290387 
L 758.512493 212.021414 
L 766.457508 196.141974 
L 774.146233 220.027173 
L 782.091247 195.080697 
L 789.779972 215.19659 
" clip-path="url(#pffa5415ebd)" style="fill: none; stroke: #ff7f0e; stroke-width: 1.2; stroke-linecap: square"/>
   </g>
   <g id="line2d_38">
    <path d="M 79.598153 152.999985 
L 87.543168 209.216845 
L 95.231892 232.539848 
L 103.176907 213.250871 
L 111.121922 209.080538 
L 118.810646 214.021309 
L 126.755661 168.08017 
L 134.444385 191.544057 
L 142.3894 207.075722 
L 150.334415 179.40282 
L 157.510558 232.459259 
L 165.455573 163.687257 
L 173.144297 243.027306 
L 181.089312 252.044189 
L 188.778036 186.082946 
L 196.723051 241.479729 
L 204.668066 219.599153 
L 212.35679 180.541866 
L 220.301805 214.004668 
L 227.990529 160.057659 
L 235.935544 229.733929 
L 243.880559 213.361638 
L 251.056701 226.508302 
L 259.001716 187.158024 
L 266.69044 187.011366 
L 274.635455 245.888943 
L 282.324179 184.073605 
L 290.269194 254.908393 
L 298.214209 257.54981 
L 305.902933 200.538824 
L 313.847948 208.512081 
L 321.536672 200.964073 
L 329.481687 164.757677 
L 337.426702 55.072787 
L 344.859136 252.477891 
L 352.804151 227.230839 
L 360.492875 262.084155 
L 368.43789 168.153545 
L 376.126614 214.200387 
L 384.071629 221.890354 
L 392.016644 206.395767 
L 399.705368 186.015812 
L 407.650383 189.163885 
L 415.339107 169.510136 
L 423.284122 234.04124 
L 431.229137 193.748519 
L 438.405279 194.653844 
L 446.350294 237.856112 
L 454.039018 258.443349 
L 461.984033 214.840961 
L 469.672757 267.622747 
L 477.617772 221.914271 
L 485.562787 276.678861 
L 493.251511 271.197434 
L 501.196526 200.500345 
L 508.88525 256.696033 
L 516.830265 200.359005 
L 524.77528 176.177142 
L 531.951423 252.586 
L 539.896438 254.360651 
L 547.585162 220.372107 
L 555.530177 256.939896 
L 563.218901 210.419534 
L 571.163916 245.96732 
L 579.108931 256.796384 
L 586.797655 235.690985 
L 594.74267 221.713447 
L 602.431394 216.013817 
L 610.376409 211.022127 
L 618.321424 249.754398 
L 625.497566 201.268591 
L 633.442581 184.097278 
L 641.131305 213.670895 
L 649.07632 233.480916 
L 656.765044 234.704665 
L 664.710059 269.083033 
L 672.655074 217.320727 
L 680.343798 169.198911 
L 688.288813 234.476495 
L 695.977537 112.346257 
L 703.922552 224.507656 
L 711.867567 212.162217 
L 719.3 230.184116 
L 727.245015 198.4701 
L 734.93374 172.191112 
L 742.878754 214.619853 
L 750.567479 224.805649 
L 758.512493 227.87811 
L 766.457508 199.341665 
L 774.146233 226.754965 
L 782.091247 200.080809 
L 789.779972 222.27403 
" clip-path="url(#pffa5415ebd)" style="fill: none; stroke: #2ca02c; stroke-width: 1.2; stroke-linecap: square"/>
   </g>
   <g id="patch_3">
    <path d="M 44.089063 298.606313 
L 44.089063 21.406313 
" style="fill: none; stroke: #000000; stroke-width: 0.8; stroke-linejoin: miter; stroke-linecap: square"/>
   </g>
   <g id="patch_4">
    <path d="M 825.289062 298.606313 
L 825.289062 21.406313 
" style="fill: none; stroke: #000000; stroke-width: 0.8; stroke-linejoin: miter; stroke-linecap: square"/>
   </g>
   <g id="patch_5">
    <path d="M 44.089062 298.606313 
L 825.289062 298.606313 
" style="fill: none; stroke: #000000; stroke-width: 0.8; stroke-linejoin: miter; stroke-linecap: square"/>
   </g>
   <g id="patch_6">
    <path d="M 44.089062 21.406313 
L 825.289062 21.406313 
" style="fill: none; stroke: #000000; stroke-width: 0.8; stroke-linejoin: miter; stroke-linecap: square"/>
   </g>
   <g id="text_19">
    <!-- timeseries_absolute.svg analog: monthly mean weekly rainfall -->
    <g transform="translate(265.671594 15.406313) scale(0.108 -0.108)">
     <defs>
      <path id="DejaVuSans-74" d="M 1172 4494 
L 1172 3500 
L 2356 3500 
L 2356 3053 
L 1172 3053 
L 1172 1153 
Q 1172 725 1289 603 
Q 1406 481 1766 481 
L 2356 481 
L 2356 0 
L 1766 0 
Q 1100 0 847 248 
Q 594 497 594 1153 
L 594 3053 
L 172 3053 
L 172 3500 
L 594 3500 
L 594 4494 
L 1172 4494 
z
" transform="scale(0.015625)"/>
      <path id="DejaVuSans-73" d="M 2834 3397 
L 2834 2853 
Q 2591 2978 2328 3040 
Q 2066 3103 1784 3103 
Q 1356 3103 1142 2972 
Q 928 2841 928 2578 
Q 928 2378 1081 2264 
Q 1234 2150 1697 2047 
L 1894 2003 
Q 2506 1872 2764 1633 
Q 3022 1394 3022 966 
Q 3022 478 2636 193 
Q 2250 -91 1575 -91 
Q 1294 -91 989 -36 
Q 684 19 347 128 
L 347 722 
Q 666 556 975 473 
Q 1284 391 1588 391 
Q 1994 391 2212 530 
Q 2431 669 2431 922 
Q 2431 1156 2273 1281 
Q 2116 1406 1581 1522 
L 1381 1569 
Q 847 1681 609 1914 
Q 372 2147 372 2553 
Q 372 3047 722 3315 
Q 1072 3584 1716 3584 
Q 2034 3584 2315 3537 
Q 2597 3491 2834 3397 
z
" transform="scale(0.015625)"/>
      <path id="DejaVuSans-5f" d="M 3263 -1063 
L 3263 -1509 
L -63 -1509 
L -63 -1063 
L 3263 -1063 
z
" transform="scale(0.015625)"/>
      <path id="DejaVuSans-62" d="M 3116 1747 
Q 3116 2381 2855 2742 
Q 2594 3103 2138 3103 
Q 1681 3103 1420 2742 
Q 1159 2381 1159 1747 
Q 1159 1113 1420 752 
Q 1681 391 2138 391 
Q 2594 391 2855 752 
Q 3116 1113 3116 1747 
z
M 1159 2969 
Q 1341 3281 1617 3432 
Q 1894 3584 2278 3584 
Q 2916 3584 3314 3078 
Q 3713 2572 3713 1747 
Q 3713 922 3314 415 
Q 2916 -91 2278 -91 
Q 1894 -91 1617 61 
Q 1341 213 1159 525 
L 1159 0 
L 581 0 
L 581 4863 
L 1159 4863 
L 1159 2969 
z
" transform="scale(0.015625)"/>
      <path id="DejaVuSans-6f" d="M 1959 3097 
Q 1497 3097 1228 2736 
Q 959 2375 959 1747 
Q 959 1119 1226 758 
Q 1494 397 1959 397 
Q 2419 397 2687 759 
Q 2956 1122 2956 1747 
Q 2956 2369 2687 2733 
Q 2419 3097 1959 3097 
z
M 1959 3584 
Q 2709 3584 3137 3096 
Q 3566 2609 3566 1747 
Q 3566 888 3137 398 
Q 2709 -91 1959 -91 
Q 1206 -91 779 398 
Q 353 888 353 1747 
Q 353 2609 779 3096 
Q 1206 3584 1959 3584 
z
" transform="scale(0.015625)"/>
      <path id="DejaVuSans-75" d="M 544 1381 
L 544 3500 
L 1119 3500 
L 1119 1403 
Q 1119 906 1312 657 
Q 1506 409 1894 409 
Q 2359 409 2629 706 
Q 2900 1003 2900 1516 
L 2900 3500 
L 3475 3500 
L 3475 0 
L 2900 0 
L 2900 538 
Q 2691 219 2414 64 
Q 2138 -91 1772 -91 
Q 1169 -91 856 284 
Q 544 659 544 1381 
z
M 1991 3584 
L 1991 3584 
z
" transform="scale(0.015625)"/>
      <path id="DejaVuSans-2e" d="M 684 794 
L 1344 794 
L 1344 0 
L 684 0 
L 684 794 
z
" transform="scale(0.015625)"/>
      <path id="DejaVuSans-76" d="M 191 3500 
L 800 3500 
L 1894 563 
L 2988 3500 
L 3597 3500 
L 2284 0 
L 1503 0 
L 191 3500 
z
" transform="scale(0.015625)"/>
      <path id="DejaVuSans-67" d="M 2906 1791 
Q 2906 2416 2648 2759 
Q 2391 3103 1925 3103 
Q 1463 3103 1205 2759 
Q 947 2416 947 1791 
Q 947 1169 1205 825 
Q 1463 481 1925 481 
Q 2391 481 2648 825 
Q 2906 1169 2906 1791 
z
M 3481 434 
Q 3481 -459 3084 -895 
Q 2688 -1331 1869 -1331 
Q 1566 -1331 1297 -1286 
Q 1028 -1241 775 -1147 
L 775 -588 
Q 1028 -725 1275 -790 
Q 1522 -856 1778 -856 
Q 2344 -856 2625 -561 
Q 2906 -266 2906 331 
L 2906 616 
Q 2728 306 2450 153 
Q 2172 0 1784 0 
Q 1141 0 747 490 
Q 353 981 353 1791 
Q 353 2603 747 3093 
Q 1141 3584 1784 3584 
Q 2172 3584 2450 3431 
Q 2728 3278 2906 2969 
L 2906 3500 
L 3481 3500 
L 3481 434 
z
" transform="scale(0.015625)"/>
      <path id="DejaVuSans-3a" d="M 750 794 
L 1409 794 
L 1409 0 
L 750 0 
L 750 794 
z
M 750 3309 
L 1409 3309 
L 1409 2516 
L 750 2516 
L 750 3309 
z
" transform="scale(0.015625)"/>
      <path id="DejaVuSans-68" d="M 3513 2113 
L 3513 0 
L 2938 0 
L 2938 2094 
Q 2938 2591 2744 2837 
Q 2550 3084 2163 3084 
Q 1697 3084 1428 2787 
Q 1159 2491 1159 1978 
L 1159 0 
L 581 0 
L 581 4863 
L 1159 4863 
L 1159 2956 
Q 1366 3272 1645 3428 
Q 1925 3584 2291 3584 
Q 2894 3584 3203 3211 
Q 3513 2838 3513 2113 
z
" transform="scale(0.015625)"/>
     </defs>
     <use xlink:href="#DejaVuSans-74"/>
     <use xlink:href="#DejaVuSans-69" transform="translate(39.208984 0)"/>
     <use xlink:href="#DejaVuSans-6d" transform="translate(66.992188 0)"/>
     <use xlink:href="#DejaVuSans-65" transform="translate(164.404297 0)"/>
     <use xlink:href="#DejaVuSans-73" transform="translate(225.927734 0)"/>
     <use xlink:href="#DejaVuSans-65" transform="translate(278.027344 0)"/>
     <use xlink:href="#DejaVuSans-72" transform="translate(339.550781 0)"/>
     <use xlink:href="#DejaVuSans-69" transform="translate(380.664062 0)"/>
     <use xlink:href="#DejaVuSans-65" transform="translate(408.447266 0)"/>
     <use xlink:href="#DejaVuSans-73" transform="translate(469.970703 0)"/>
     <use xlink:href="#DejaVuSans-5f" transform="translate(522.070312 0)"/>
     <use xlink:href="#DejaVuSans-61" transform="translate(572.070312 0)"/>
     <use xlink:href="#DejaVuSans-62" transform="translate(633.349609 0)"/>
     <use xlink:href="#DejaVuSans-73" transform="translate(696.826172 0)"/>
     <use xlink:href="#DejaVuSans-6f" transform="translate(748.925781 0)"/>
     <use xlink:href="#DejaVuSans-6c" transform="translate(810.107422 0)"/>
     <use xlink:href="#DejaVuSans-75" transform="translate(837.890625 0)"/>
     <use xlink:href="#DejaVuSans-74" transform="translate(901.269531 0)"/>
     <use xlink:href="#DejaVuSans-65" transform="translate(940.478516 0)"/>
     <use xlink:href="#DejaVuSans-2e" transform="translate(1002.001953 0)"/>
     <use xlink:href="#DejaVuSans-73" transform="translate(1033.789062 0)"/>
     <use xlink:href="#DejaVuSans-76" transform="translate(1085.888672 0)"/>
     <use xlink:href="#DejaVuSans-67" transform="translate(1145.068359 0)"/>
     <use xlink:href="#DejaVuSans-20" transform="translate(1208.544922 0)"/>
     <use xlink:href="#DejaVuSans-61" transform="translate(1240.332031 0)"/>
     <use xlink:href="#DejaVuSans-6e" transform="translate(1301.611328 0)"/>
     <use xlink:href="#DejaVuSans-61" transform="translate(1364.990234 0)"/>
     <use xlink:href="#DejaVuSans-6c" transform="translate(1426.269531 0)"/>
     <use xlink:href="#DejaVuSans-6f" transform="translate(1454.052734 0)"/>
     <use xlink:href="#DejaVuSans-67" transform="translate(1515.234375 0)"/>
     <use xlink:href="#DejaVuSans-3a" transform="translate(1578.710938 0)"/>
     <use xlink:href="#DejaVuSans-20" transform="translate(1612.402344 0)"/>
     <use xlink:href="#DejaVuSans-6d" transform="translate(1644.189453 0)"/>
     <use xlink:href="#DejaVuSans-6f" transform="translate(1741.601562 0)"/>
     <use xlink:href="#DejaVuSans-6e" transform="translate(1802.783203 0)"/>
     <use xlink:href="#DejaVuSans-74" transform="translate(1866.162109 0)"/>
     <use xlink:href="#DejaVuSans-68" transform="translate(1905.371094 0)"/>
     <use xlink:href="#DejaVuSans-6c" transform="translate(1968.75 0)"/>
     <use xlink:href="#DejaVuSans-79" transform="translate(1996.533203 0)"/>
     <use xlink:href="#DejaVuSans-20" transform="translate(2055.712891 0)"/>
     <use xlink:href="#DejaVuSans-6d" transform="translate(2087.5 0)"/>
     <use xlink:href="#DejaVuSans-65" transform="translate(2184.912109 0)"/>
     <use xlink:href="#DejaVuSans-61" transform="translate(2246.435547 0)"/>
     <use xlink:href="#DejaVuSans-6e" transform="translate(2307.714844 0)"/>
     <use xlink:href="#DejaVuSans-20" transform="translate(2371.09375 0)"/>
     <use xlink:href="#DejaVuSans-77" transform="translate(2402.880859 0)"/>
     <use xlink:href="#DejaVuSans-65" transform="translate(2484.667969 0)"/>
     <use xlink:href="#DejaVuSans-65" transform="translate(2546.191406 0)"/>
     <use xlink:href="#DejaVuSans-6b" transform="translate(2607.714844 0)"/>
     <use xlink:href="#DejaVuSans-6c" transform="translate(2665.625 0)"/>
     <use xlink:href="#DejaVuSans-79" transform="translate(2693.408203 0)"/>
     <use xlink:href="#DejaVuSans-20" transform="translate(2752.587891 0)"/>
     <use xlink:href="#DejaVuSans-72" transform="translate(2784.375 0)"/>
     <use xlink:href="#DejaVuSans-61" transform="translate(2825.488281 0)"/>
     <use xlink:href="#DejaVuSans-69" transform="translate(2886.767578 0)"/>
     <use xlink:href="#DejaVuSans-6e" transform="translate(2914.550781 0)"/>
     <use xlink:href="#DejaVuSans-66" transform="translate(2977.929688 0)"/>
     <use xlink:href="#DejaVuSans-61" transform="translate(3013.134766 0)"/>
     <use xlink:href="#DejaVuSans-6c" transform="translate(3074.414062 0)"/>
     <use xlink:href="#DejaVuSans-6c" transform="translate(3102.197266 0)"/>
    </g>
   </g>
   <g id="legend_1">
    <g id="patch_7">
     <path d="M 584.092031 47.945063 
L 820.389062 47.945063 
Q 821.789062 47.945063 821.789062 46.545063 
L 821.789062 26.306313 
Q 821.789062 24.906313 820.389062 24.906313 
L 584.092031 24.906313 
Q 582.692031 24.906313 582.692031 26.306313 
L 582.692031 46.545063 
Q 582.692031 47.945063 584.092031 47.945063 
z
" style="fill: #ffffff; opacity: 0.8; stroke: #cccccc; stroke-linejoin: miter"/>
    </g>
    <g id="line2d_39">
     <path d="M 585.492031 30.575219 
L 592.492031 30.575219 
L 599.492031 30.575219 
" style="fill: none; stroke: #000000; stroke-width: 2; stroke-linecap: square"/>
    </g>
    <g id="text_20">
     <!-- observed -->
     <g transform="translate(605.092031 33.025219) scale(0.07 -0.07)">
      <defs>
       <path id="DejaVuSans-64" d="M 2906 2969 
L 2906 4863 
L 3481 4863 
L 3481 0 
L 2906 0 
L 2906 525 
Q 2725 213 2448 61 
Q 2172 -91 1784 -91 
Q 1150 -91 751 415 
Q 353 922 353 1747 
Q 353 2572 751 3078 
Q 1150 3584 1784 3584 
Q 2172 3584 2448 3432 
Q 2725 3281 2906 2969 
z
M 947 1747 
Q 947 1113 1208 752 
Q 1469 391 1925 391 
Q 2381 391 2643 752 
Q 2906 1113 2906 1747 
Q 2906 2381 2643 2742 
Q 2381 3103 1925 3103 
Q 1469 3103 1208 2742 
Q 947 2381 947 1747 
z
" transform="scale(0.015625)"/>
      </defs>
      <use xlink:href="#DejaVuSans-6f"/>
      <use xlink:href="#DejaVuSans-62" transform="translate(61.181641 0)"/>
      <use xlink:href="#DejaVuSans-73" transform="translate(124.658203 0)"/>
      <use xlink:href="#DejaVuSans-65" transform="translate(176.757812 0)"/>
      <use xlink:href="#DejaVuSans-72" transform="translate(238.28125 0)"/>
      <use xlink:href="#DejaVuSans-76" transform="translate(279.394531 0)"/>
      <use xlink:href="#DejaVuSans-65" transform="translate(338.574219 0)"/>
      <use xlink:href="#DejaVuSans-64" transform="translate(400.097656 0)"/>
     </g>
    </g>
    <g id="line2d_40">
     <path d="M 585.492031 40.849906 
L 592.492031 40.849906 
L 599.492031 40.849906 
" style="fill: none; stroke: #1f77b4; stroke-width: 1.2; stroke-linecap: square"/>
    </g>
    <g id="text_21">
     <!-- weekly_land_v5 -->
     <g transform="translate(605.092031 43.299906) scale(0.07 -0.07)">
      <use xlink:href="#DejaVuSans-77"/>
      <use xlink:href="#DejaVuSans-65" transform="translate(81.787109 0)"/>
      <use xlink:href="#DejaVuSans-65" transform="translate(143.310547 0)"/>
      <use xlink:href="#DejaVuSans-6b" transform="translate(204.833984 0)"/>
      <use xlink:href="#DejaVuSans-6c" transform="translate(262.744141 0)"/>
      <use xlink:href="#DejaVuSans-79" transform="translate(290.527344 0)"/>
      <use xlink:href="#DejaVuSans-5f" transform="translate(349.707031 0)"/>
      <use xlink:href="#DejaVuSans-6c" transform="translate(399.707031 0)"/>
      <use xlink:href="#DejaVuSans-61" transform="translate(427.490234 0)"/>
      <use xlink:href="#DejaVuSans-6e" transform="translate(488.769531 0)"/>
      <use xlink:href="#DejaVuSans-64" transform="translate(552.148438 0)"/>
      <use xlink:href="#DejaVuSans-5f" transform="translate(615.625 0)"/>
      <use xlink:href="#DejaVuSans-76" transform="translate(665.625 0)"/>
      <use xlink:href="#DejaVuSans-35" transform="translate(724.804688 0)"/>
     </g>
    </g>
    <g id="line2d_41">
     <path d="M 674.28375 30.575219 
L 681.28375 30.575219 
L 688.28375 30.575219 
" style="fill: none; stroke: #ff7f0e; stroke-width: 1.2; stroke-linecap: square"/>
    </g>
    <g id="text_22">
     <!-- weekly_land_v5_huber_rw_msemon -->
     <g transform="translate(693.88375 33.025219) scale(0.07 -0.07)">
      <use xlink:href="#DejaVuSans-77"/>
      <use xlink:href="#DejaVuSans-65" transform="translate(81.787109 0)"/>
      <use xlink:href="#DejaVuSans-65" transform="translate(143.310547 0)"/>
      <use xlink:href="#DejaVuSans-6b" transform="translate(204.833984 0)"/>
      <use xlink:href="#DejaVuSans-6c" transform="translate(262.744141 0)"/>
      <use xlink:href="#DejaVuSans-79" transform="translate(290.527344 0)"/>
      <use xlink:href="#DejaVuSans-5f" transform="translate(349.707031 0)"/>
      <use xlink:href="#DejaVuSans-6c" transform="translate(399.707031 0)"/>
      <use xlink:href="#DejaVuSans-61" transform="translate(427.490234 0)"/>
      <use xlink:href="#DejaVuSans-6e" transform="translate(488.769531 0)"/>
      <use xlink:href="#DejaVuSans-64" transform="translate(552.148438 0)"/>
      <use xlink:href="#DejaVuSans-5f" transform="translate(615.625 0)"/>
      <use xlink:href="#DejaVuSans-76" transform="translate(665.625 0)"/>
      <use xlink:href="#DejaVuSans-35" transform="translate(724.804688 0)"/>
      <use xlink:href="#DejaVuSans-5f" transform="translate(788.427734 0)"/>
      <use xlink:href="#DejaVuSans-68" transform="translate(838.427734 0)"/>
      <use xlink:href="#DejaVuSans-75" transform="translate(901.806641 0)"/>
      <use xlink:href="#DejaVuSans-62" transform="translate(965.185547 0)"/>
      <use xlink:href="#DejaVuSans-65" transform="translate(1028.662109 0)"/>
      <use xlink:href="#DejaVuSans-72" transform="translate(1090.185547 0)"/>
      <use xlink:href="#DejaVuSans-5f" transform="translate(1131.298828 0)"/>
      <use xlink:href="#DejaVuSans-72" transform="translate(1181.298828 0)"/>
      <use xlink:href="#DejaVuSans-77" transform="translate(1222.412109 0)"/>
      <use xlink:href="#DejaVuSans-5f" transform="translate(1304.199219 0)"/>
      <use xlink:href="#DejaVuSans-6d" transform="translate(1354.199219 0)"/>
      <use xlink:href="#DejaVuSans-73" transform="translate(1451.611328 0)"/>
      <use xlink:href="#DejaVuSans-65" transform="translate(1503.710938 0)"/>
      <use xlink:href="#DejaVuSans-6d" transform="translate(1565.234375 0)"/>
      <use xlink:href="#DejaVuSans-6f" transform="translate(1662.646484 0)"/>
      <use xlink:href="#DejaVuSans-6e" transform="translate(1723.828125 0)"/>
     </g>
    </g>
    <g id="line2d_42">
     <path d="M 674.28375 41.044594 
L 681.28375 41.044594 
L 688.28375 41.044594 
" style="fill: none; stroke: #2ca02c; stroke-width: 1.2; stroke-linecap: square"/>
    </g>
    <g id="text_23">
     <!-- v5_gamma_huber_cv_mse -->
     <g transform="translate(693.88375 43.494594) scale(0.07 -0.07)">
      <defs>
       <path id="DejaVuSans-63" d="M 3122 3366 
L 3122 2828 
Q 2878 2963 2633 3030 
Q 2388 3097 2138 3097 
Q 1578 3097 1268 2742 
Q 959 2388 959 1747 
Q 959 1106 1268 751 
Q 1578 397 2138 397 
Q 2388 397 2633 464 
Q 2878 531 3122 666 
L 3122 134 
Q 2881 22 2623 -34 
Q 2366 -91 2075 -91 
Q 1284 -91 818 406 
Q 353 903 353 1747 
Q 353 2603 823 3093 
Q 1294 3584 2113 3584 
Q 2378 3584 2631 3529 
Q 2884 3475 3122 3366 
z
" transform="scale(0.015625)"/>
      </defs>
      <use xlink:href="#DejaVuSans-76"/>
      <use xlink:href="#DejaVuSans-35" transform="translate(59.179688 0)"/>
      <use xlink:href="#DejaVuSans-5f" transform="translate(122.802734 0)"/>
      <use xlink:href="#DejaVuSans-67" transform="translate(172.802734 0)"/>
      <use xlink:href="#DejaVuSans-61" transform="translate(236.279297 0)"/>
      <use xlink:href="#DejaVuSans-6d" transform="translate(297.558594 0)"/>
      <use xlink:href="#DejaVuSans-6d" transform="translate(394.970703 0)"/>
      <use xlink:href="#DejaVuSans-61" transform="translate(492.382812 0)"/>
      <use xlink:href="#DejaVuSans-5f" transform="translate(553.662109 0)"/>
      <use xlink:href="#DejaVuSans-68" transform="translate(603.662109 0)"/>
      <use xlink:href="#DejaVuSans-75" transform="translate(667.041016 0)"/>
      <use xlink:href="#DejaVuSans-62" transform="translate(730.419922 0)"/>
      <use xlink:href="#DejaVuSans-65" transform="translate(793.896484 0)"/>
      <use xlink:href="#DejaVuSans-72" transform="translate(855.419922 0)"/>
      <use xlink:href="#DejaVuSans-5f" transform="translate(896.533203 0)"/>
      <use xlink:href="#DejaVuSans-63" transform="translate(946.533203 0)"/>
      <use xlink:href="#DejaVuSans-76" transform="translate(1001.513672 0)"/>
      <use xlink:href="#DejaVuSans-5f" transform="translate(1060.693359 0)"/>
      <use xlink:href="#DejaVuSans-6d" transform="translate(1110.693359 0)"/>
      <use xlink:href="#DejaVuSans-73" transform="translate(1208.105469 0)"/>
      <use xlink:href="#DejaVuSans-65" transform="translate(1260.205078 0)"/>
     </g>
    </g>
   </g>
  </g>
 </g>
 <defs>
  <clipPath id="pffa5415ebd">
   <rect x="44.089063" y="21.406313" width="781.2" height="277.2"/>
  </clipPath>
 </defs>
</svg>
